<mxfile host="app.diagrams.net" modified="2024-04-17T20:02:38.454Z" agent="Mozilla/5.0 (Windows NT 10.0; Win64; x64) AppleWebKit/537.36 (KHTML, like Gecko) Chrome/123.0.0.0 Safari/537.36" etag="QJjJLKXnAL_NXfi-B69Z" version="24.2.5" type="google">
  <diagram name="Casos-de-Uso" id="zZso_dBgEHyHbhoQAy7b">
    <mxGraphModel grid="1" page="1" gridSize="10" guides="1" tooltips="1" connect="1" arrows="1" fold="1" pageScale="1" pageWidth="827" pageHeight="1169" math="0" shadow="0">
      <root>
        <mxCell id="0" />
        <mxCell id="1" parent="0" />
        <mxCell id="3QsaN-ajgjfJz71d2l3Z-32" style="edgeStyle=orthogonalEdgeStyle;rounded=0;orthogonalLoop=1;jettySize=auto;html=1;entryX=0;entryY=0.5;entryDx=0;entryDy=0;" edge="1" parent="1" source="6pU5FyZ5nVuUbAdvs90v-1" target="3QsaN-ajgjfJz71d2l3Z-28">
          <mxGeometry relative="1" as="geometry" />
        </mxCell>
        <mxCell id="6pU5FyZ5nVuUbAdvs90v-1" value="Encarregado de produção&lt;div&gt;&lt;br&gt;&lt;/div&gt;" style="shape=umlActor;verticalLabelPosition=bottom;verticalAlign=top;html=1;outlineConnect=0;" vertex="1" parent="1">
          <mxGeometry x="660" y="710" width="30" height="60" as="geometry" />
        </mxCell>
        <mxCell id="LZi8gqKAwBUWrsGNz2SF-10" value="" style="edgeStyle=orthogonalEdgeStyle;rounded=0;orthogonalLoop=1;jettySize=auto;html=1;" edge="1" parent="1" source="6pU5FyZ5nVuUbAdvs90v-8" target="LZi8gqKAwBUWrsGNz2SF-9">
          <mxGeometry relative="1" as="geometry" />
        </mxCell>
        <mxCell id="uV2caE101IlBX3xqZfHi-28" value="" style="edgeStyle=orthogonalEdgeStyle;rounded=0;orthogonalLoop=1;jettySize=auto;html=1;entryX=0;entryY=0.5;entryDx=0;entryDy=0;" edge="1" parent="1" source="6pU5FyZ5nVuUbAdvs90v-8" target="sis6l78J1alrJfrxd07H-1">
          <mxGeometry relative="1" as="geometry">
            <mxPoint x="105" y="1015" as="targetPoint" />
            <Array as="points">
              <mxPoint x="105" y="1135" />
            </Array>
          </mxGeometry>
        </mxCell>
        <mxCell id="6pU5FyZ5nVuUbAdvs90v-8" value="Fornecedor" style="shape=umlActor;verticalLabelPosition=bottom;verticalAlign=top;html=1;outlineConnect=0;" vertex="1" parent="1">
          <mxGeometry x="90" y="885" width="30" height="60" as="geometry" />
        </mxCell>
        <mxCell id="UnOZuYmr4BIUER0_lljY-6" value="" style="edgeStyle=orthogonalEdgeStyle;rounded=0;orthogonalLoop=1;jettySize=auto;html=1;entryX=0;entryY=0.5;entryDx=0;entryDy=0;" edge="1" parent="1" source="Na7M9Cc45gB9pCZ956Ur-1" target="zQUFoqiZaOhCE2KYcPnC-6">
          <mxGeometry relative="1" as="geometry">
            <mxPoint x="336.25" y="288.12" as="targetPoint" />
          </mxGeometry>
        </mxCell>
        <mxCell id="LZi8gqKAwBUWrsGNz2SF-2" value="" style="edgeStyle=orthogonalEdgeStyle;rounded=0;orthogonalLoop=1;jettySize=auto;html=1;" edge="1" parent="1" source="Na7M9Cc45gB9pCZ956Ur-1" target="LZi8gqKAwBUWrsGNz2SF-8">
          <mxGeometry relative="1" as="geometry">
            <mxPoint x="211.25" y="428.12" as="targetPoint" />
            <Array as="points">
              <mxPoint x="55" y="330" />
              <mxPoint x="211" y="330" />
            </Array>
          </mxGeometry>
        </mxCell>
        <mxCell id="LZi8gqKAwBUWrsGNz2SF-25" value="" style="edgeStyle=orthogonalEdgeStyle;rounded=0;orthogonalLoop=1;jettySize=auto;html=1;" edge="1" parent="1" source="Na7M9Cc45gB9pCZ956Ur-1" target="LZi8gqKAwBUWrsGNz2SF-22">
          <mxGeometry relative="1" as="geometry">
            <Array as="points">
              <mxPoint x="55" y="230" />
              <mxPoint x="211" y="230" />
            </Array>
          </mxGeometry>
        </mxCell>
        <mxCell id="Na7M9Cc45gB9pCZ956Ur-1" value="Admin Fazenda" style="shape=umlActor;verticalLabelPosition=bottom;verticalAlign=top;html=1;fontColor=default;" vertex="1" parent="1">
          <mxGeometry x="40" y="258.12" width="30" height="60" as="geometry" />
        </mxCell>
        <mxCell id="3QsaN-ajgjfJz71d2l3Z-34" style="edgeStyle=orthogonalEdgeStyle;rounded=0;orthogonalLoop=1;jettySize=auto;html=1;" edge="1" parent="1" source="zQUFoqiZaOhCE2KYcPnC-4" target="6pU5FyZ5nVuUbAdvs90v-1">
          <mxGeometry relative="1" as="geometry" />
        </mxCell>
        <mxCell id="zQUFoqiZaOhCE2KYcPnC-4" value="&lt;font style=&quot;font-size: 11px;&quot;&gt;Contatar Produção&amp;nbsp;&lt;/font&gt;" style="ellipse;whiteSpace=wrap;html=1;" vertex="1" parent="1">
          <mxGeometry x="805.34" y="400" width="169.31" height="75" as="geometry" />
        </mxCell>
        <mxCell id="zQUFoqiZaOhCE2KYcPnC-17" value="" style="edgeStyle=orthogonalEdgeStyle;rounded=0;orthogonalLoop=1;jettySize=auto;html=1;exitX=0.5;exitY=1;exitDx=0;exitDy=0;entryX=0;entryY=0.5;entryDx=0;entryDy=0;" edge="1" parent="1" source="zQUFoqiZaOhCE2KYcPnC-6" target="zQUFoqiZaOhCE2KYcPnC-14">
          <mxGeometry relative="1" as="geometry" />
        </mxCell>
        <mxCell id="zQUFoqiZaOhCE2KYcPnC-6" value="Buscar fornecedores" style="ellipse;whiteSpace=wrap;html=1;" vertex="1" parent="1">
          <mxGeometry x="244" y="250.62" width="170" height="75" as="geometry" />
        </mxCell>
        <mxCell id="zQUFoqiZaOhCE2KYcPnC-14" value="Fornecedor já existe?" style="rhombus;whiteSpace=wrap;html=1;fontColor=#000000;fillColor=#ffffc0;strokeColor=#ff0000;" vertex="1" parent="1">
          <mxGeometry x="353.75" y="350" width="116.25" height="87.5" as="geometry" />
        </mxCell>
        <mxCell id="zQUFoqiZaOhCE2KYcPnC-15" value="nao" style="edgeStyle=orthogonalEdgeStyle;html=1;align=left;verticalAlign=bottom;endArrow=open;endSize=8;strokeColor=#ff0000;rounded=0;" edge="1" parent="1" source="zQUFoqiZaOhCE2KYcPnC-14" target="zQUFoqiZaOhCE2KYcPnC-19">
          <mxGeometry x="0.0588" y="6" relative="1" as="geometry">
            <mxPoint x="680.25" y="288.12" as="targetPoint" />
            <mxPoint as="offset" />
          </mxGeometry>
        </mxCell>
        <mxCell id="zQUFoqiZaOhCE2KYcPnC-16" value="sim" style="edgeStyle=orthogonalEdgeStyle;html=1;align=left;verticalAlign=top;endArrow=open;endSize=8;strokeColor=#ff0000;rounded=0;exitX=0.5;exitY=0;exitDx=0;exitDy=0;" edge="1" parent="1" source="zQUFoqiZaOhCE2KYcPnC-14" target="zQUFoqiZaOhCE2KYcPnC-18">
          <mxGeometry x="-0.1255" y="5" relative="1" as="geometry">
            <mxPoint x="576.25" y="188.12" as="targetPoint" />
            <mxPoint x="576.25" y="248.12" as="sourcePoint" />
            <mxPoint as="offset" />
          </mxGeometry>
        </mxCell>
        <mxCell id="zQUFoqiZaOhCE2KYcPnC-18" value="Não cadastrar" style="ellipse;whiteSpace=wrap;html=1;" vertex="1" parent="1">
          <mxGeometry x="420" y="230" width="160" height="80" as="geometry" />
        </mxCell>
        <mxCell id="zQUFoqiZaOhCE2KYcPnC-19" value="Cadastrar novo fornecedor" style="ellipse;whiteSpace=wrap;html=1;" vertex="1" parent="1">
          <mxGeometry x="326.87" y="480" width="170" height="95" as="geometry" />
        </mxCell>
        <mxCell id="LZi8gqKAwBUWrsGNz2SF-6" value="&amp;lt;&amp;lt;include&amp;gt;&amp;gt;" style="endArrow=open;endSize=12;dashed=1;html=1;rounded=0;entryX=0;entryY=1;entryDx=0;entryDy=0;" edge="1" parent="1" source="LZi8gqKAwBUWrsGNz2SF-8" target="zQUFoqiZaOhCE2KYcPnC-6">
          <mxGeometry width="160" relative="1" as="geometry">
            <mxPoint x="328.75" y="468.12" as="sourcePoint" />
            <mxPoint x="341.2949897804431" y="406.1665191466632" as="targetPoint" />
          </mxGeometry>
        </mxCell>
        <mxCell id="LZi8gqKAwBUWrsGNz2SF-8" value="Cadastrar fornecedor" style="ellipse;whiteSpace=wrap;html=1;" vertex="1" parent="1">
          <mxGeometry x="141.25" y="418.12" width="140" height="70" as="geometry" />
        </mxCell>
        <mxCell id="LZi8gqKAwBUWrsGNz2SF-9" value="Fornecer matéria-prima" style="ellipse;whiteSpace=wrap;html=1;" vertex="1" parent="1">
          <mxGeometry x="266.87" y="880" width="140" height="70" as="geometry" />
        </mxCell>
        <mxCell id="LZi8gqKAwBUWrsGNz2SF-13" value="Sistema_Estoque_de_Insumos" style="shape=umlFrame;whiteSpace=wrap;html=1;pointerEvents=0;width=197;height=27;" vertex="1" parent="1">
          <mxGeometry x="762.59" y="103.13" width="280" height="460" as="geometry" />
        </mxCell>
        <mxCell id="LZi8gqKAwBUWrsGNz2SF-14" value="Fazer Login" style="ellipse;whiteSpace=wrap;html=1;" vertex="1" parent="1">
          <mxGeometry x="266.87" y="740" width="140" height="70" as="geometry" />
        </mxCell>
        <mxCell id="LZi8gqKAwBUWrsGNz2SF-16" value="&amp;lt;&amp;lt;include&amp;gt;&amp;gt;" style="endArrow=open;endSize=12;dashed=1;html=1;rounded=0;exitX=0.5;exitY=0;exitDx=0;exitDy=0;" edge="1" parent="1" source="LZi8gqKAwBUWrsGNz2SF-9" target="LZi8gqKAwBUWrsGNz2SF-14">
          <mxGeometry width="160" relative="1" as="geometry">
            <mxPoint x="186.87" y="910" as="sourcePoint" />
            <mxPoint x="346.87" y="910" as="targetPoint" />
          </mxGeometry>
        </mxCell>
        <mxCell id="LZi8gqKAwBUWrsGNz2SF-19" value="Sistema_Fornecedor" style="shape=umlFrame;whiteSpace=wrap;html=1;pointerEvents=0;width=140;height=30;" vertex="1" parent="1">
          <mxGeometry x="176.87" y="670" width="320" height="600" as="geometry" />
        </mxCell>
        <mxCell id="LZi8gqKAwBUWrsGNz2SF-22" value="Editar fornecedor" style="ellipse;whiteSpace=wrap;html=1;" vertex="1" parent="1">
          <mxGeometry x="156.25" y="146.25" width="140" height="70" as="geometry" />
        </mxCell>
        <mxCell id="uV2caE101IlBX3xqZfHi-1" value="Sistema-&lt;span style=&quot;background-color: initial;&quot;&gt;Cadastro-Fornecedor&lt;/span&gt;" style="shape=umlFrame;whiteSpace=wrap;html=1;pointerEvents=0;width=180;height=32;" vertex="1" parent="1">
          <mxGeometry x="120" y="48.12" width="480" height="561.88" as="geometry" />
        </mxCell>
        <mxCell id="3QsaN-ajgjfJz71d2l3Z-16" value="Sistema_Produção_de_Insumos" style="shape=umlFrame;whiteSpace=wrap;html=1;pointerEvents=0;width=197;height=30;" vertex="1" parent="1">
          <mxGeometry x="762.59" y="670" width="397.41" height="450" as="geometry" />
        </mxCell>
        <mxCell id="3QsaN-ajgjfJz71d2l3Z-19" value="" style="edgeStyle=orthogonalEdgeStyle;rounded=0;orthogonalLoop=1;jettySize=auto;html=1;entryX=0;entryY=0.5;entryDx=0;entryDy=0;exitX=0.5;exitY=0.5;exitDx=0;exitDy=0;exitPerimeter=0;" edge="1" parent="1" source="3QsaN-ajgjfJz71d2l3Z-20" target="3QsaN-ajgjfJz71d2l3Z-22">
          <mxGeometry relative="1" as="geometry">
            <mxPoint x="1105.25" y="235" as="targetPoint" />
            <Array as="points">
              <mxPoint x="740" y="270" />
              <mxPoint x="740" y="212" />
            </Array>
          </mxGeometry>
        </mxCell>
        <mxCell id="3QsaN-ajgjfJz71d2l3Z-20" value="Estoquista de Insumos" style="shape=umlActor;verticalLabelPosition=bottom;verticalAlign=top;html=1;outlineConnect=0;" vertex="1" parent="1">
          <mxGeometry x="680" y="240" width="30" height="60" as="geometry" />
        </mxCell>
        <mxCell id="3QsaN-ajgjfJz71d2l3Z-21" value="" style="endArrow=classic;html=1;rounded=0;entryDx=0;entryDy=0;exitX=0.5;exitY=1;exitDx=0;exitDy=0;entryX=0.5;entryY=0;" edge="1" parent="1" source="3QsaN-ajgjfJz71d2l3Z-22" target="uV2caE101IlBX3xqZfHi-21">
          <mxGeometry width="50" height="50" relative="1" as="geometry">
            <mxPoint x="1260.25" y="235" as="sourcePoint" />
            <mxPoint x="898.96" y="290" as="targetPoint" />
          </mxGeometry>
        </mxCell>
        <mxCell id="3QsaN-ajgjfJz71d2l3Z-22" value="&lt;font style=&quot;font-size: 11px;&quot;&gt;Monitorar os níveis de estoque dos insumos&lt;/font&gt;" style="ellipse;whiteSpace=wrap;html=1;" vertex="1" parent="1">
          <mxGeometry x="808.96" y="174.37" width="161.04" height="75.63" as="geometry" />
        </mxCell>
        <mxCell id="3QsaN-ajgjfJz71d2l3Z-36" style="edgeStyle=orthogonalEdgeStyle;rounded=0;orthogonalLoop=1;jettySize=auto;html=1;entryX=0.5;entryY=0;entryDx=0;entryDy=0;" edge="1" parent="1" source="3QsaN-ajgjfJz71d2l3Z-27" target="3QsaN-ajgjfJz71d2l3Z-35">
          <mxGeometry relative="1" as="geometry" />
        </mxCell>
        <mxCell id="3QsaN-ajgjfJz71d2l3Z-41" value="" style="edgeStyle=orthogonalEdgeStyle;rounded=0;orthogonalLoop=1;jettySize=auto;html=1;" edge="1" parent="1" source="3QsaN-ajgjfJz71d2l3Z-27" target="3QsaN-ajgjfJz71d2l3Z-40">
          <mxGeometry relative="1" as="geometry" />
        </mxCell>
        <mxCell id="3QsaN-ajgjfJz71d2l3Z-42" value="Sim" style="edgeLabel;html=1;align=center;verticalAlign=middle;resizable=0;points=[];" vertex="1" connectable="0" parent="3QsaN-ajgjfJz71d2l3Z-41">
          <mxGeometry x="-0.3281" relative="1" as="geometry">
            <mxPoint x="4" as="offset" />
          </mxGeometry>
        </mxCell>
        <mxCell id="3QsaN-ajgjfJz71d2l3Z-27" value="Há matéria prima?&amp;nbsp;" style="rhombus;whiteSpace=wrap;html=1;fillColor=#fff2cc;strokeColor=#b14e36;" vertex="1" parent="1">
          <mxGeometry x="820" y="855" width="150" height="80" as="geometry" />
        </mxCell>
        <mxCell id="3QsaN-ajgjfJz71d2l3Z-30" value="" style="edgeStyle=orthogonalEdgeStyle;rounded=0;orthogonalLoop=1;jettySize=auto;html=1;" edge="1" parent="1" source="3QsaN-ajgjfJz71d2l3Z-28" target="3QsaN-ajgjfJz71d2l3Z-27">
          <mxGeometry relative="1" as="geometry" />
        </mxCell>
        <mxCell id="3QsaN-ajgjfJz71d2l3Z-28" value="Produzir insumos solicitados" style="ellipse;whiteSpace=wrap;html=1;" vertex="1" parent="1">
          <mxGeometry x="816.63" y="725" width="158.02" height="85" as="geometry" />
        </mxCell>
        <mxCell id="uV2caE101IlBX3xqZfHi-21" value="Estoque vazio?" style="rhombus;whiteSpace=wrap;html=1;fontColor=#000000;fillColor=#ffffc0;strokeColor=#ff0000;" vertex="1" parent="1">
          <mxGeometry x="834.48" y="290" width="110" height="60" as="geometry" />
        </mxCell>
        <mxCell id="uV2caE101IlBX3xqZfHi-23" value="sim" style="edgeStyle=orthogonalEdgeStyle;html=1;align=left;verticalAlign=top;endArrow=open;endSize=8;strokeColor=#ff0000;rounded=0;entryX=0.5;entryY=0;entryDx=0;entryDy=0;" edge="1" parent="1" source="uV2caE101IlBX3xqZfHi-21" target="zQUFoqiZaOhCE2KYcPnC-4">
          <mxGeometry x="-1" relative="1" as="geometry">
            <mxPoint x="890" y="400" as="targetPoint" />
          </mxGeometry>
        </mxCell>
        <mxCell id="3QsaN-ajgjfJz71d2l3Z-38" value="" style="edgeStyle=orthogonalEdgeStyle;rounded=0;orthogonalLoop=1;jettySize=auto;html=1;" edge="1" parent="1" source="3QsaN-ajgjfJz71d2l3Z-35" target="3QsaN-ajgjfJz71d2l3Z-27">
          <mxGeometry relative="1" as="geometry" />
        </mxCell>
        <mxCell id="3QsaN-ajgjfJz71d2l3Z-39" value="Não" style="edgeLabel;html=1;align=center;verticalAlign=middle;resizable=0;points=[];" vertex="1" connectable="0" parent="3QsaN-ajgjfJz71d2l3Z-38">
          <mxGeometry x="0.3863" y="-4" relative="1" as="geometry">
            <mxPoint x="1" as="offset" />
          </mxGeometry>
        </mxCell>
        <mxCell id="3QsaN-ajgjfJz71d2l3Z-50" style="edgeStyle=orthogonalEdgeStyle;rounded=0;orthogonalLoop=1;jettySize=auto;html=1;" edge="1" parent="1" source="3QsaN-ajgjfJz71d2l3Z-35" target="LZi8gqKAwBUWrsGNz2SF-19">
          <mxGeometry relative="1" as="geometry">
            <Array as="points">
              <mxPoint x="580" y="1020" />
              <mxPoint x="580" y="1020" />
            </Array>
          </mxGeometry>
        </mxCell>
        <mxCell id="uV2caE101IlBX3xqZfHi-30" value="&lt;span style=&quot;font-size: 12px; text-wrap: wrap; background-color: rgb(251, 251, 251);&quot;&gt;Enviar Solicitação via Email&lt;/span&gt;" style="edgeLabel;html=1;align=center;verticalAlign=middle;resizable=0;points=[];" connectable="0" vertex="1" parent="3QsaN-ajgjfJz71d2l3Z-50">
          <mxGeometry x="0.2665" y="-2" relative="1" as="geometry">
            <mxPoint as="offset" />
          </mxGeometry>
        </mxCell>
        <mxCell id="3QsaN-ajgjfJz71d2l3Z-35" value="Contatar Fornecedor" style="ellipse;whiteSpace=wrap;html=1;" vertex="1" parent="1">
          <mxGeometry x="835.6399999999999" y="980" width="120" height="80" as="geometry" />
        </mxCell>
        <mxCell id="3QsaN-ajgjfJz71d2l3Z-40" value="Fornecer ao estoque" style="ellipse;whiteSpace=wrap;html=1;" vertex="1" parent="1">
          <mxGeometry x="1020" y="855" width="120" height="80" as="geometry" />
        </mxCell>
        <mxCell id="uV2caE101IlBX3xqZfHi-26" value="Monitorar pedidos da fazenda" style="ellipse;whiteSpace=wrap;html=1;" vertex="1" parent="1">
          <mxGeometry x="259" y="985" width="140" height="70" as="geometry" />
        </mxCell>
        <mxCell id="sis6l78J1alrJfrxd07H-1" value="Cadastrar produto" style="ellipse;whiteSpace=wrap;html=1;" vertex="1" parent="1">
          <mxGeometry x="259" y="1100" width="140" height="70" as="geometry" />
        </mxCell>
        <mxCell id="sis6l78J1alrJfrxd07H-2" value="" style="endArrow=classic;html=1;rounded=0;exitX=0.5;exitY=0.5;exitDx=0;exitDy=0;exitPerimeter=0;entryX=0;entryY=0.5;entryDx=0;entryDy=0;" edge="1" parent="1" source="6pU5FyZ5nVuUbAdvs90v-8" target="uV2caE101IlBX3xqZfHi-26">
          <mxGeometry width="50" height="50" relative="1" as="geometry">
            <mxPoint x="370" y="940" as="sourcePoint" />
            <mxPoint x="420" y="890" as="targetPoint" />
          </mxGeometry>
        </mxCell>
      </root>
    </mxGraphModel>
  </diagram>
</mxfile>
